HIERARCHY
ROOT hip
{
  OFFSET 0 0 0
  CHANNELS 6 Xposition Yposition Zposition Zrotation Yrotation Xrotation
  JOINT abdomen
  {
    OFFSET 0 20.6881 -0.73152
    CHANNELS 3 Zrotation Xrotation Yrotation
    JOINT chest
    {
      OFFSET 0 11.7043 -0.48768
      CHANNELS 3 Zrotation Xrotation Yrotation
      JOINT neck
      {
        OFFSET 0 22.1894 -2.19456
        CHANNELS 3 Zrotation Xrotation Yrotation
        JOINT head
        {
          OFFSET -0.24384 7.07133 1.2192
          CHANNELS 3 Zrotation Xrotation Yrotation
          JOINT leftEye
          {
            OFFSET 4.14528 8.04674 8.04672
            CHANNELS 3 Zrotation Xrotation Yrotation
            End Site
            {
              OFFSET 1 0 0
            }
          }
          JOINT rightEye
          {
            OFFSET -3.6576 8.04674 8.04672
            CHANNELS 3 Zrotation Xrotation Yrotation
            End Site
            {
              OFFSET 1 0 0
            }
          }
        }
      }
      JOINT rCollar
      {
        OFFSET -2.68224 19.2634 -4.8768
        CHANNELS 3 Zrotation Xrotation Yrotation
        JOINT rShldr
        {
          OFFSET -8.77824 -1.95073 1.46304
          CHANNELS 3 Zrotation Xrotation Yrotation
          JOINT rForeArm
          {
            OFFSET -28.1742 -1.7115 0.48768
            CHANNELS 3 Zrotation Xrotation Yrotation
            JOINT rHand
            {
              OFFSET -22.5879 0.773209 7.07136
              CHANNELS 3 Zrotation Xrotation Yrotation
              JOINT rThumb1
              {
                OFFSET -1.2192 -0.487915 3.41376
                CHANNELS 3 Zrotation Xrotation Yrotation
                JOINT rThumb2
                {
                  OFFSET -3.37035 -0.52449 3.41376
                  CHANNELS 3 Zrotation Xrotation Yrotation
                  End Site
                  {
                    OFFSET -1.78271 -1.18214 1.43049
                  }
                }
              }
              JOINT rIndex1
              {
                OFFSET -7.75947 0.938293 5.60832
                CHANNELS 3 Zrotation Xrotation Yrotation
                JOINT rIndex2
                {
                  OFFSET -2.54057 -0.884171 1.56538
                  CHANNELS 3 Zrotation Xrotation Yrotation
                  End Site
                  {
                    OFFSET -1.62519 -0.234802 1.16502
                  }
                }
              }
              JOINT rMid1
              {
                OFFSET -8.24714 1.18213 3.41376
                CHANNELS 3 Zrotation Xrotation Yrotation
                JOINT rMid2
                {
                  OFFSET -3.10165 -0.590103 1.0647
                  CHANNELS 3 Zrotation Xrotation Yrotation
                  End Site
                  {
                    OFFSET -2.48547 -0.328903 0.83742
                  }
                }
              }
              JOINT rRing1
              {
                OFFSET -8.82822 0.546677 1.51678
                CHANNELS 3 Zrotation Xrotation Yrotation
                JOINT rRing2
                {
                  OFFSET -2.60934 -0.819778 -0.0198488
                  CHANNELS 3 Zrotation Xrotation Yrotation
                  End Site
                  {
                    OFFSET -2.33842 -0.294052 0.168128
                  }
                }
              }
              JOINT rPinky1
              {
                OFFSET -8.27202 -0.0477905 -0.4584
                CHANNELS 3 Zrotation Xrotation Yrotation
                JOINT rPinky2
                {
                  OFFSET -1.82734 -0.647385 -0.700984
                  CHANNELS 3 Zrotation Xrotation Yrotation
                  End Site
                  {
                    OFFSET -1.69225 -0.51767 -0.607171
                  }
                }
              }
            }
          }
        }
      }
      JOINT lCollar
      {
        OFFSET 2.68224 19.2634 -4.8768
        CHANNELS 3 Zrotation Xrotation Yrotation
        JOINT lShldr
        {
          OFFSET 8.77824 -1.95073 1.46304
          CHANNELS 3 Zrotation Xrotation Yrotation
          JOINT lForeArm
          {
            OFFSET 28.1742 -1.7115 0.48768
            CHANNELS 3 Zrotation Xrotation Yrotation
            JOINT lHand
            {
              OFFSET 22.5879 0.773209 7.07136
              CHANNELS 3 Zrotation Xrotation Yrotation
              JOINT lThumb1
              {
                OFFSET 1.2192 -0.487915 3.41376
                CHANNELS 3 Zrotation Xrotation Yrotation
                JOINT lThumb2
                {
                  OFFSET 3.37035 -0.52449 3.41376
                  CHANNELS 3 Zrotation Xrotation Yrotation
                  End Site
                  {
                    OFFSET 1.78271 -1.18214 1.43049
                  }
                }
              }
              JOINT lIndex1
              {
                OFFSET 7.75947 0.938293 5.60832
                CHANNELS 3 Zrotation Xrotation Yrotation
                JOINT lIndex2
                {
                  OFFSET 2.54057 -0.884171 1.56538
                  CHANNELS 3 Zrotation Xrotation Yrotation
                  End Site
                  {
                    OFFSET 1.62519 -0.234802 1.16502
                  }
                }
              }
              JOINT lMid1
              {
                OFFSET 8.24714 1.18213 3.41376
                CHANNELS 3 Zrotation Xrotation Yrotation
                JOINT lMid2
                {
                  OFFSET 3.10165 -0.590103 1.0647
                  CHANNELS 3 Zrotation Xrotation Yrotation
                  End Site
                  {
                    OFFSET 2.48547 -0.328903 0.83742
                  }
                }
              }
              JOINT lRing1
              {
                OFFSET 8.82822 0.546677 1.51678
                CHANNELS 3 Zrotation Xrotation Yrotation
                JOINT lRing2
                {
                  OFFSET 2.60934 -0.819778 -0.0198488
                  CHANNELS 3 Zrotation Xrotation Yrotation
                  End Site
                  {
                    OFFSET 2.33842 -0.294052 0.168128
                  }
                }
              }
              JOINT lPinky1
              {
                OFFSET 8.27202 -0.0477905 -0.4584
                CHANNELS 3 Zrotation Xrotation Yrotation
                JOINT lPinky2
                {
                  OFFSET 1.82734 -0.647385 -0.700984
                  CHANNELS 3 Zrotation Xrotation Yrotation
                  End Site
                  {
                    OFFSET 1.69225 -0.51767 -0.607171
                  }
                }
              }
            }
          }
        }
      }
    }
  }
  JOINT rButtock
  {
    OFFSET -8.77824 4.35084 1.2192
    CHANNELS 3 Zrotation Xrotation Yrotation
    JOINT rThigh
    {
      OFFSET 0 -1.70687 -2.19456
      CHANNELS 3 Zrotation Xrotation Yrotation
      JOINT rShin
      {
        OFFSET 0 -36.8199 0.73152
        CHANNELS 3 Zrotation Xrotation Yrotation
        JOINT rFoot
        {
          OFFSET 0.73152 -45.1104 -5.12064
          CHANNELS 3 Zrotation Xrotation Yrotation
          End Site
          {
            OFFSET -1.1221 -3.69964 12.103
          }
        }
      }
    }
  }
  JOINT lButtock
  {
    OFFSET 8.77824 4.35084 1.2192
    CHANNELS 3 Zrotation Xrotation Yrotation
    JOINT lThigh
    {
      OFFSET 0 -1.70687 -2.19456
      CHANNELS 3 Zrotation Xrotation Yrotation
      JOINT lShin
      {
        OFFSET 0 -36.8199 0.73152
        CHANNELS 3 Zrotation Xrotation Yrotation
        JOINT lFoot
        {
          OFFSET -0.73152 -45.1104 -5.12064
          CHANNELS 3 Zrotation Xrotation Yrotation
          End Site
          {
            OFFSET 1.1221 -3.69964 12.103
          }
        }
      }
    }
  }
}
MOTION
Frames:	8
Frame Time:	0.03333
0.0 0.0 0.0 0.0 0.0 0.0 0.0 0.0 0.0 0.0 0.0 0.0 0.0 0.0 0.0 0.0 0.0 0.0 0.0 0.0 0.0 0.0 0.0 0.0 0.0 0.0 0.0 0.0 0.0 0.0 0.0 0.0 0.0 0.0 0.0 0.0 0.0 0.0 0.0 0.0 0.0 0.0 0.0 0.0 0.0 0.0 0.0 0.0 0.0 0.0 0.0 0.0 0.0 0.0 0.0 0.0 0.0 0.0 0.0 0.0 0.0 0.0 0.0 0.0 0.0 0.0 0.0 0.0 0.0 0.0 0.0 0.0 0.0 0.0 0.0 0.0 0.0 0.0 0.0 0.0 0.0 0.0 0.0 0.0 0.0 0.0 0.0 0.0 0.0 0.0 0.0 0.0 0.0 0.0 0.0 0.0 0.0 0.0 0.0 0.0 0.0 0.0 0.0 0.0 0.0 0.0 0.0 0.0 0.0 0.0 0.0 0.0 0.0 0.0 0.0 0.0 0.0 0.0 0.0 0.0 0.0 0.0 0.0 0.0 0.0 0.0 0.0 0.0 0.0 0.0 0.0 0.0
0.0026 71.22540000000001 -0.0247 -2.27309 24.587247 4.049021 -7.870335 1.398098 79.990091 -2.093155 -8.385341 -82.733755 -17.334817 21.28923 -64.148568 13.436737 22.340183 23.527526 -0.002867 -0.0 0.001607 0.004508 -0.0 -0.003712 -159.22082 -48.724887 170.568134 -133.081124 -60.542123 -94.605291 -123.531985 -67.179478 -89.845264 -1.018575 0.776726 -0.425711 -169.31968 -7.000904 89.92166 58.505333 -67.11853 45.269295 -83.732967 42.330579 69.989853 47.611032 -52.840291 8.279534 0.540264 -1.590051 -0.295332 -175.988201 -41.18996 143.081722 -0.020458 -1.725729 -0.541667 -52.625061 -86.663875 -74.263531 -3.22599 -7.78562 -3.011634 -173.776094 79.036621 -143.492123 3.532748 17.018717 -4.366691 98.558333 -20.698472 -156.488099 -177.298185 21.598751 152.103651 13.885024 58.831645 -8.339342 172.746543 -10.42346 -89.929057 30.792265 -30.909475 -3.264045 10.57212 15.013173 -6.865205 114.722339 38.631502 -88.490361 36.037551 51.722545 -29.832977 172.14455 -31.869298 -143.960288 -0.001364 0.06351 -0.021311 52.824474 -86.668711 74.318558 150.033507 28.966293 145.935027 76.477657 -52.979905 75.78732 0.000363 0.000427 9.1e-05 -7.481137 -22.944299 -39.795312 -25.780082 24.449218 88.997668 -82.302167 36.049343 6.990993 0.00069 0.000427 0.000345 6.107144 -15.367509 -13.031093 -1.046203 40.292116 96.956119 171.038182 -65.039361 64.476254
0.0015 71.2213 -0.0442 -2.225229 24.582746 4.05379 -7.708826 1.957989 69.754751 -0.891627 -8.702224 -72.481808 -16.600452 27.960569 -104.311277 0.718098 26.291181 67.68191 0.005506 -0.0 -0.001321 -0.001991 -0.0 0.001512 0.117562 -0.714042 -0.158384 69.08521 4.397199 -5.128417 -175.966296 -4.038261 101.746794 168.837379 -23.847504 142.620697 76.38463 -49.200142 28.871551 -139.005035 12.824126 105.960932 169.567459 -65.842339 109.956197 -139.635547 16.880559 113.178396 -0.058073 0.167825 0.031878 5.16776 -5.862838 -0.703951 0.005106 1.770613 0.55512 -156.620149 -42.779801 177.025729 32.012156 83.320778 6.23411 -6.510677 -17.50744 -7.78108 159.221702 -48.380856 -170.491621 58.069195 -11.441254 43.59885 -14.302626 -3.112318 59.283421 -154.838228 -32.934635 -141.805111 -76.384844 -49.200045 -28.871357 137.053134 15.396299 -103.834171 -60.458607 -70.525002 -15.708877 10.479956 35.313442 -8.794493 10.976809 25.789559 -7.640936 42.019312 58.552459 -36.152106 -0.001116 0.063893 -0.018817 156.18004 -15.11845 -173.637721 125.808895 -27.877935 123.551846 170.213739 71.144745 143.665402 0.000388 -0.000186 -0.000498 -9.498729 -23.433903 68.04575 30.505251 18.474624 -84.786648 141.084805 -21.303698 -5.139146 0.001028 -0.000186 0.0 5.786649 -17.618905 -180.0 5.038104 -37.525619 120.82639 107.106784 -79.719425 -165.464087
0.0006000000000000001 71.2162 -0.0672 -2.16859 24.571981 4.077618 -3.045738 1.100077 -93.821955 2.571203 3.493379 90.929976 -17.605956 22.378753 -71.764322 9.786938 24.484885 32.484646 -0.001859 -0.0 0.001906 0.005689 -0.0 -0.00081 3.192881 -25.838905 -5.073219 64.116104 8.600732 -26.323026 94.953751 -28.572139 58.196972 -159.019086 53.406016 133.684968 94.369183 -51.138633 41.452336 -137.501211 19.107893 98.752025 -155.193356 -24.300032 122.142773 95.978894 -70.656621 42.169634 -10.97579 25.790129 7.638825 -174.97811 -39.027167 143.365024 0.000422 0.063679 0.020664 -108.1786 76.26274 121.778664 -25.539754 -38.085658 -24.60183 -40.718702 -50.129695 -41.77952 0.048894 0.292474 -0.064369 93.036283 -12.623529 -173.702193 -6.612935 -3.587474 60.348651 -147.853019 -42.387554 -135.811971 -4.530564 -4.514234 0.520765 -12.227689 -21.863561 13.009161 139.764517 2.950506 -115.639748 172.665165 -32.754476 -117.483224 4.681873 12.53642 -2.931214 42.037975 58.559907 -36.11895 72.757767 -72.142216 89.772729 -14.056507 27.425778 0.908985 86.001952 -50.498399 84.370661 -3.413392 0.011785 1.025633 0.0 -0.001462 0.001188 -7.994908 -22.833753 -19.896732 -19.908402 28.572606 24.600997 112.531391 -26.667249 -1.385828 -0.001644 0.000268 -0.0 6.826761 -16.941617 -112.88727 -32.837602 -17.9796 49.837385 14.316092 -2.840109 74.570783
0.0017 71.2103 -0.0901 -2.1015 24.563288 4.121103 -3.07071 0.928499 -98.880507 2.014333 3.828268 95.821549 -15.660571 29.544127 -114.58058 -3.771185 25.28628 79.245454 0.000139 -0.0 -0.004386 -0.002178 -0.0 0.00275 3.54207 -62.052997 -13.039716 32.129471 2.721211 -49.194696 -68.817687 61.855029 108.081713 1.392323 -7.336429 -0.205479 -164.698873 -2.371803 89.585079 171.222478 -24.062508 92.885012 -1.161416 1.861035 0.668891 16.738292 -7.665568 -1.284411 -161.153431 -8.160538 143.465565 11.533709 -24.898098 -1.142369 -72.757502 -72.14381 -89.771944 5.41802 -62.300139 -18.976211 -13.27946 -25.410129 -12.63208 -128.25874 -28.998317 -127.04775 13.744131 42.431414 -15.569662 56.001693 25.040455 -120.147635 -7.429664 39.531517 63.27555 -148.456073 -41.687738 -136.355412 0.474279 0.468132 -0.07489 -10.881008 -15.463271 8.103048 0.686922 1.108676 -0.393224 163.922403 -16.893732 -109.958056 -23.900539 -61.334429 -1.396388 -2.220933 2.414933 -0.425944 70.380417 -72.129709 87.280261 -14.025783 27.429015 0.841718 140.386533 -1.530218 137.47379 10.716987 -25.375296 13.324805 0.002164 -0.000137 0.001082 -8.509526 -25.111346 -180.0 1.219453 -37.395381 -131.497993 -80.060144 40.829586 4.167374 -179.926707 75.74804 -0.056489 -170.591664 57.721756 151.418958 10.246691 -45.277744 -35.261565 -154.366969 82.00822 58.788014
0.0015 71.2039 -0.11230000000000001 -2.030752 24.566853 4.176907 -7.810969 1.103434 95.115176 -3.480698 -8.0595 -98.529732 -15.470613 30.046719 -116.701106 -4.812236 24.881107 81.674432 -0.000919 -0.0 0.002703 -0.000919 -0.0 0.002703 -158.513648 -30.702033 167.039136 77.325575 81.906085 -122.712557 110.803611 -60.504053 35.320777 179.2891 7.187086 144.730077 -178.927557 -16.453674 89.421879 -127.642259 16.066111 63.222435 -14.228396 19.203757 9.558828 -2.49006 15.660878 3.155148 68.982818 -80.154404 40.577111 -83.392052 64.163105 75.16226 -145.121428 0.268114 -179.211652 12.045815 35.302994 -5.004407 -13.274377 -25.411904 -12.629389 -147.20217 12.846303 -143.845835 6.252054 26.219035 -7.468589 90.544132 -1.892865 -147.448292 89.411209 -48.75257 109.641661 -19.809906 -30.494885 -15.488876 7.758433 7.439229 -1.681437 137.845839 -41.30333 -114.494266 46.207883 39.653083 -36.318431 67.694336 50.201574 -47.948962 160.340548 -5.644313 -143.08786 -29.967807 -60.066086 -7.101547 145.109111 -0.626984 178.930855 -10.260535 -0.281507 9.033162 155.691539 51.108249 149.783508 -0.602516 -2.594564 2.570582 0.0 0.001066 -0.000742 -8.519101 -22.910329 -3.494074 -18.151798 39.998422 -83.160118 154.35968 38.317832 -68.325011 179.951168 75.749612 0.037637 -169.256918 59.808277 -9.206048 10.784579 36.918421 59.773764 -154.294426 -2.912267 41.160377
0.0021 71.1979 -0.126 -1.97227 24.578315 4.230117 -3.094527 0.790278 -104.312156 1.307039 4.176469 101.026933 -15.929774 18.329989 -44.860753 15.048594 20.337449 3.660194 0.000793 -0.0 -0.00315 -0.001713 -0.0 0.00153 -155.460018 -3.227734 161.777732 72.621697 -77.765986 119.60493 43.708516 -87.181072 82.495139 -8.240652 22.287053 0.537608 -78.030844 38.689915 42.412326 41.516966 -35.686116 19.785184 88.791563 -75.499969 40.049238 -23.416659 44.695056 18.196913 -158.520777 -0.192317 142.145191 -175.341778 -39.012741 142.900229 -0.021721 -1.724104 -0.543506 11.333527 -15.758753 -1.941671 -111.060267 -41.158995 -109.115848 -160.662655 55.941517 -147.702082 22.303773 52.676942 -24.500071 96.695218 -3.053339 -119.324999 119.3658 -40.706481 139.601356 -14.154084 -18.927394 -11.157599 177.749096 -15.323615 -89.569201 -124.261643 -62.591061 -92.522779 46.207895 39.652434 -36.319237 -12.586533 -9.106339 3.362183 -68.984216 -80.153931 -40.579467 159.413633 7.039376 -141.508294 73.62525 72.972493 -91.554033 -4.994257 29.77055 0.456499 147.205225 18.767776 143.593715 -11.81465 28.188904 -4.336797 0.00095 0.000153 -0.0 -8.239076 -23.039026 -20.303954 -22.022242 28.309214 11.231723 81.114786 -7.263443 -2.930824 -179.992104 75.749489 -0.005403 -169.406115 59.775993 -9.074382 8.163061 44.394399 133.667442 -18.625611 9.265916 -123.665304
0.0033000000000000004 71.193 -0.1344 -1.931949 24.588389 4.269541 -7.671478 2.083392 74.896188 -1.133178 -9.011524 -78.223106 -12.360792 15.095263 -19.021957 18.3189 13.789744 -23.66828 -0.001311 -0.0 0.001446 0.001292 -0.0 -0.000761 -87.226477 68.082635 90.395672 10.574291 4.92584 68.488103 -54.030594 -5.423743 -18.953646 30.539421 -58.167165 18.510727 -78.029854 38.689385 42.413278 -25.812448 -3.822867 35.429926 10.211623 -18.050619 -4.564243 -112.299632 38.306538 89.758477 -39.288376 53.366062 32.878328 -171.962877 -31.377824 143.985275 -145.099513 -1.605341 -178.62432 -70.862374 87.693851 84.276411 -125.808838 -27.877643 -123.55148 -80.14466 -52.855063 -80.403971 13.946146 42.750601 -15.783963 -77.101401 2.224922 -48.343912 -13.001848 -20.346078 -30.423106 16.386187 62.317448 -9.992441 78.030451 38.689714 -42.412701 178.115234 -45.467675 -78.096096 108.42768 34.161596 -91.743388 -85.394773 -66.792229 -37.948932 6.771594 17.383835 -4.417589 163.22245 -4.816651 -143.348641 -0.001729 0.063678 -0.020204 140.370231 60.457323 -154.517946 -3.235618 9.114354 -2.948032 9.309015 -24.626606 10.493852 179.996112 75.750542 0.00266 167.379906 51.796271 -0.0 -24.97505 34.851111 -57.78803 131.283217 44.491357 -40.383806 -0.003251 0.000138 -0.003251 5.506147 -17.795233 180.0 2.552406 -35.820337 142.856269 -103.941665 -76.034248 -13.240944
